# xmcd
#
# Track frame offsets: 
#        150
#        16156
#        35520
#        58196
#        89973
#        113802
#        143570
#        162929
#
# Disc length: 2523 seconds
#
# Revision: 0
# Processed by: cddbd v1.5.2PL0 Copyright (c) Steve Scherf et al.
# Submitted via: ExactAudioCopy v1.3
#
DISCID=6809d908
DTITLE=Blind Boy Tinder Blues Band - Master Series Volumen 1
DYEAR=2016
DGENRE=Blues
TTITLE0=Champagne And Reefer
TTITLE1=Get Off My Life Woman
TTITLE2=Baby Please Set A Date
TTITLE3=Feel So Bad
TTITLE4=Married Woman
TTITLE5=Gambler's Blues
TTITLE6=I Believe
TTITLE7=Man Or Mouse
EXTD=
EXTT0=
EXTT1=
EXTT2=
EXTT3=
EXTT4=
EXTT5=
EXTT6=
EXTT7=
PLAYORDER=
